<svg xmlns="http://www.w3.org/2000/svg" viewBox="0 0 64 64">
  <defs>
    <radialGradient id="bg" cx="50%" cy="50%" r="50%">
      <stop offset="0%" stop-color="#1c0f4e"/>
      <stop offset="100%" stop-color="#0c0a1e"/>
    </radialGradient>
    <radialGradient id="head" cx="40%" cy="35%" r="65%">
      <stop offset="0%" stop-color="#c4b5fd"/>
      <stop offset="50%" stop-color="#8b5cf6"/>
      <stop offset="100%" stop-color="#5b21b6"/>
    </radialGradient>
  </defs>
  <rect width="64" height="64" rx="16" fill="url(#bg)"/>
  <line x1="32" y1="4" x2="32" y2="14" stroke="#a78bfa" stroke-width="2" stroke-linecap="round"/>
  <circle cx="32" cy="3" r="3" fill="#7dd3fc"/>
  <ellipse cx="32" cy="38" rx="18" ry="20" fill="url(#head)"/>
  <ellipse cx="24" cy="38" rx="6" ry="7" fill="white" opacity="0.92"/>
  <ellipse cx="40" cy="38" rx="6" ry="7" fill="white" opacity="0.92"/>
  <circle cx="24" cy="39" r="4" fill="#7c3aed"/>
  <circle cx="24" cy="39" r="2.2" fill="#4c1d95"/>
  <circle cx="22" cy="37" r="1" fill="white" opacity="0.85"/>
  <circle cx="40" cy="39" r="4" fill="#7c3aed"/>
  <circle cx="40" cy="39" r="2.2" fill="#4c1d95"/>
  <circle cx="38" cy="37" r="1" fill="white" opacity="0.85"/>
  <ellipse cx="17" cy="44" rx="4" ry="2.5" fill="#f472b6" opacity="0.35"/>
  <ellipse cx="47" cy="44" rx="4" ry="2.5" fill="#f472b6" opacity="0.35"/>
  <path d="M26 48 Q32 53 38 48" stroke="#6d28d9" stroke-width="1.8" stroke-linecap="round" fill="none"/>
</svg>
